<svg width="85.000000" height="84.000000" viewBox="0 0 85 84" fill="none" xmlns="http://www.w3.org/2000/svg" xmlns:xlink="http://www.w3.org/1999/xlink">
	<desc>
			Created with Pixso.
	</desc>
	<defs>
		<clipPath id="clip87_45">
			<rect id="smartphone" width="85.487503" height="84.000000" transform="translate(-0.487549 0.000000)" fill="white" fill-opacity="0"/>
		</clipPath>
		<clipPath id="clip87_63">
			<rect id="guarantee (1)" width="42.743752" height="42.000000" transform="translate(26.990723 21.000000)" fill="white" fill-opacity="0"/>
		</clipPath>
	</defs>
	<rect id="smartphone" width="85.487503" height="84.000000" transform="translate(-0.487549 0.000000)" fill="#FFFFFF" fill-opacity="0"/>
	<g clip-path="url(#clip87_45)">
		<g opacity="0.800000">
			<path id="Vector" d="M20.17 1.4L54.36 1.4C57.51 1.4 60.06 3.9 60.06 7L60.06 12.6L14.47 12.6L14.47 7C14.47 3.9 17.02 1.4 20.17 1.4Z" fill="#27ACE2" fill-opacity="1.000000" fill-rule="nonzero"/>
		</g>
		<g opacity="0.800000">
			<path id="Vector" d="M14.47 68.6L60.06 68.6L60.06 77C60.06 80.09 57.51 82.6 54.36 82.6L20.17 82.6C17.02 82.6 14.47 80.09 14.47 77L14.47 68.6Z" fill="#27ACE2" fill-opacity="1.000000" fill-rule="nonzero"/>
		</g>
		<path id="Vector" d="M58.64 67.19L21.59 67.19L21.59 70L58.64 70L58.64 77C58.64 79.31 56.72 81.19 54.36 81.19L20.17 81.19C17.81 81.19 15.89 79.31 15.89 77L15.89 14L52.94 14L52.94 11.2L15.89 11.2L15.89 7C15.89 4.68 17.81 2.79 20.17 2.79L54.36 2.79C56.72 2.79 58.64 4.68 58.64 7L58.64 21L61.49 21L61.49 7C61.48 3.13 58.29 0 54.36 0L20.17 0C16.23 0 13.05 3.13 13.04 7L13.04 77C13.05 80.86 16.23 83.99 20.17 84L54.36 84C58.29 83.99 61.48 80.86 61.49 77L61.49 61.6L58.64 61.6L58.64 67.19Z" fill="#0060AA" fill-opacity="1.000000" fill-rule="nonzero"/>
		<path id="Vector" d="M35.84 74.19L38.69 74.19L38.69 76.99L35.84 76.99L35.84 74.19Z" fill="#0060AA" fill-opacity="1.000000" fill-rule="nonzero"/>
		<path id="Vector" d="M25.87 5.59L28.72 5.59L28.72 8.39L25.87 8.39L25.87 5.59Z" fill="#0060AA" fill-opacity="1.000000" fill-rule="nonzero"/>
		<path id="Vector" d="M31.57 5.59L34.41 5.59L34.41 8.39L31.57 8.39L31.57 5.59Z" fill="#0060AA" fill-opacity="1.000000" fill-rule="nonzero"/>
		<path id="Vector" d="M18.74 18.2L18.74 23.8L21.59 23.8L21.59 19.6L25.87 19.6L25.87 16.79L20.17 16.79C19.38 16.79 18.74 17.42 18.74 18.2Z" fill="#0060AA" fill-opacity="1.000000" fill-rule="nonzero"/>
		<rect id="certificate" width="36.637501" height="36.000000" transform="translate(32.079102 23.000000)" fill="#FFFFFF" fill-opacity="0"/>
	</g>
	<rect id="guarantee (1)" width="42.743752" height="42.000000" transform="translate(26.990723 21.000000)" fill="#FFFFFF" fill-opacity="0"/>
	<g clip-path="url(#clip87_63)">
		<g opacity="0.800000">
			<path id="Vector" d="M58.15 42C58.15 47.31 53.77 51.62 48.36 51.62C42.95 51.62 38.56 47.31 38.56 42C38.56 36.68 42.95 32.37 48.36 32.37C53.77 32.37 58.15 36.68 58.15 42Z" fill="#27ACE2" fill-opacity="1.000000" fill-rule="nonzero"/>
		</g>
		<path id="Vector" d="M69.48 35.49C68.93 33.89 67.6 32.87 66.43 31.98C65.8 31.5 65.21 31.05 64.87 30.6C64.52 30.15 64.24 29.48 63.95 28.76C63.41 27.45 62.8 25.96 61.39 24.99C60 24.03 58.33 23.95 56.86 23.87C56.03 23.83 55.25 23.79 54.65 23.6C54.1 23.44 53.47 23.05 52.8 22.64C51.55 21.87 50.13 21 48.36 21C46.59 21 45.16 21.87 43.91 22.64C43.24 23.05 42.61 23.44 42.07 23.6C41.47 23.79 40.68 23.83 39.85 23.87C38.38 23.95 36.72 24.04 35.33 24.99C33.91 25.96 33.3 27.45 32.77 28.76C32.47 29.48 32.2 30.15 31.84 30.61C31.5 31.05 30.91 31.5 30.28 31.98C29.12 32.87 27.79 33.88 27.24 35.48C26.7 37.04 27.13 38.59 27.51 39.95C27.72 40.7 27.92 41.41 27.92 42C27.92 42.58 27.72 43.29 27.51 44.05C27.13 45.41 26.7 46.95 27.24 48.51C27.79 50.11 29.12 51.12 30.28 52.01C30.91 52.49 31.5 52.94 31.85 53.39C32.2 53.84 32.47 54.51 32.76 55.23C33.3 56.54 33.92 58.04 35.33 59C36.72 59.96 38.39 60.04 39.86 60.12C40.69 60.16 41.47 60.21 42.06 60.39C42.6 60.55 43.23 60.94 43.89 61.35C45.15 62.12 46.58 63 48.36 63C50.13 63 51.56 62.12 52.81 61.35C53.48 60.94 54.11 60.56 54.66 60.39C55.25 60.21 56.03 60.16 56.86 60.12C58.33 60.04 60 59.96 61.39 59C62.8 58.04 63.41 56.54 63.95 55.23C64.24 54.52 64.52 53.84 64.87 53.39C65.21 52.94 65.8 52.49 66.43 52.01C67.6 51.12 68.93 50.11 69.47 48.51C70.01 46.95 69.58 45.41 69.2 44.05C68.99 43.29 68.79 42.58 68.79 42C68.79 41.41 68.99 40.7 69.2 39.95C69.58 38.59 70.01 37.05 69.48 35.49ZM65.77 44.97C66.03 45.89 66.29 46.84 66.1 47.39C65.89 47.99 65.06 48.63 64.25 49.25C63.46 49.84 62.66 50.46 62.04 51.27C61.39 52.09 60.99 53.07 60.64 53.93C60.26 54.87 59.89 55.76 59.35 56.13C58.8 56.52 57.76 56.57 56.67 56.63C55.66 56.68 54.62 56.73 53.6 57.05C52.61 57.35 51.76 57.87 50.93 58.38C49.99 58.95 49.11 59.5 48.36 59.5C47.6 59.5 46.72 58.95 45.78 58.38C44.96 57.87 44.11 57.35 43.12 57.05C42.1 56.74 41.06 56.68 40.05 56.63C38.96 56.57 37.93 56.52 37.37 56.13C36.82 55.76 36.46 54.87 36.07 53.92C35.7 53.02 35.32 52.09 34.68 51.27C34.06 50.46 33.25 49.84 32.47 49.25C31.66 48.63 30.82 47.99 30.61 47.38C30.42 46.84 30.69 45.89 30.95 44.98C31.2 44.08 31.48 43.05 31.48 42C31.48 40.94 31.2 39.92 30.95 39.02C30.69 38.1 30.42 37.16 30.61 36.61C30.82 36.01 31.66 35.37 32.47 34.75C33.25 34.15 34.06 33.53 34.68 32.73C35.32 31.9 35.72 30.93 36.07 30.07C36.46 29.12 36.82 28.23 37.36 27.86C37.91 27.48 38.95 27.43 40.04 27.37C41.06 27.32 42.1 27.26 43.12 26.95C44.11 26.65 44.96 26.12 45.79 25.61C46.73 25.04 47.61 24.5 48.36 24.5C49.11 24.5 49.99 25.04 50.92 25.61C51.75 26.12 52.61 26.65 53.6 26.95C54.62 27.26 55.66 27.31 56.67 27.36C57.76 27.42 58.79 27.48 59.35 27.86C59.89 28.23 60.26 29.12 60.64 30.07C60.99 30.92 61.39 31.9 62.03 32.72C62.66 33.53 63.46 34.15 64.25 34.74C65.06 35.36 65.89 36 66.1 36.61C66.29 37.15 66.03 38.1 65.77 39.02C65.52 39.92 65.23 40.94 65.23 42C65.23 43.05 65.52 44.07 65.77 44.97Z" fill="#0060AA" fill-opacity="1.000000" fill-rule="nonzero"/>
		<path id="Vector" d="M56.37 42C56.37 46.34 52.78 49.87 48.36 49.87C43.94 49.87 40.34 46.34 40.34 42C40.34 37.65 43.94 34.12 48.36 34.12L50.14 34.12L50.14 30.62L48.36 30.62C41.97 30.62 36.78 35.72 36.78 42C36.78 48.27 41.97 53.37 48.36 53.37C54.74 53.37 59.93 48.27 59.93 42L59.93 40.25L56.37 40.25L56.37 42Z" fill="#0060AA" fill-opacity="1.000000" fill-rule="nonzero"/>
		<path id="Vector" d="M46.58 37.77L44.06 40.25L48.36 44.47L58 35L55.48 32.52L48.36 39.52L46.58 37.77Z" fill="#0060AA" fill-opacity="1.000000" fill-rule="nonzero"/>
	</g>
</svg>
