<svg width="85.000000" height="84.000000" viewBox="0 0 85 84" fill="none" xmlns="http://www.w3.org/2000/svg" xmlns:xlink="http://www.w3.org/1999/xlink">
	<desc>
			Created with Pixso.
	</desc>
	<defs>
		<clipPath id="clip88_9">
			<rect id="smartphone (1)" width="85.487503" height="84.000000" transform="translate(-0.658203 0.000000)" fill="white" fill-opacity="0"/>
		</clipPath>
		<clipPath id="clip88_0">
			<rect id="clock" width="42.743752" height="42.000000" transform="translate(21.731445 22.000000)" fill="white" fill-opacity="0"/>
		</clipPath>
	</defs>
	<rect id="smartphone (1)" width="85.487503" height="84.000000" transform="translate(-0.658203 0.000000)" fill="#FFFFFF" fill-opacity="0"/>
	<g clip-path="url(#clip88_9)">
		<g opacity="0.800000">
			<path id="Vector" d="M25.16 1.4L59.36 1.4C62.5 1.4 65.06 3.9 65.06 7L65.06 12.6L19.46 12.6L19.46 7C19.46 3.9 22.01 1.4 25.16 1.4Z" fill="#27ACE2" fill-opacity="1.000000" fill-rule="nonzero"/>
		</g>
		<g opacity="0.800000">
			<path id="Vector" d="M19.46 68.6L65.06 68.6L65.06 77C65.06 80.09 62.5 82.6 59.36 82.6L25.16 82.6C22.01 82.6 19.46 80.09 19.46 77L19.46 68.6Z" fill="#27ACE2" fill-opacity="1.000000" fill-rule="nonzero"/>
		</g>
		<path id="Vector" d="M20.89 14L57.93 14L57.93 11.2L20.89 11.2L20.89 7C20.89 4.68 22.8 2.79 25.16 2.79L59.36 2.79C61.72 2.79 63.63 4.68 63.63 7L63.63 19.6L66.48 19.6L66.48 7C66.48 3.13 63.29 0 59.36 0L25.16 0C21.23 0 18.04 3.13 18.04 7L18.04 25.2L20.89 25.2L20.89 14Z" fill="#0060AA" fill-opacity="1.000000" fill-rule="nonzero"/>
		<path id="Vector" d="M63.63 67.19L26.59 67.19L26.59 70L63.63 70L63.63 77C63.63 79.31 61.72 81.19 59.36 81.19L25.16 81.19C22.8 81.19 20.89 79.31 20.89 77L20.89 67.19L18.04 67.19L18.04 77C18.04 80.86 21.23 83.99 25.16 84L59.36 84C63.29 83.99 66.48 80.86 66.48 77L66.48 61.6L63.63 61.6L63.63 67.19Z" fill="#0060AA" fill-opacity="1.000000" fill-rule="nonzero"/>
		<path id="Vector" d="M40.83 74.19L43.68 74.19L43.68 76.99L40.83 76.99L40.83 74.19Z" fill="#0060AA" fill-opacity="1.000000" fill-rule="nonzero"/>
		<path id="Vector" d="M30.86 5.59L33.71 5.59L33.71 8.39L30.86 8.39L30.86 5.59Z" fill="#0060AA" fill-opacity="1.000000" fill-rule="nonzero"/>
		<path id="Vector" d="M36.56 5.59L39.41 5.59L39.41 8.39L36.56 8.39L36.56 5.59Z" fill="#0060AA" fill-opacity="1.000000" fill-rule="nonzero"/>
		<path id="Vector" d="M23.74 18.2L23.74 23.8L26.59 23.8L26.59 19.6L30.86 19.6L30.86 16.79L25.16 16.79C24.37 16.79 23.74 17.42 23.74 18.2Z" fill="#0060AA" fill-opacity="1.000000" fill-rule="nonzero"/>
	</g>
	<g opacity="0.800000">
		<rect id="clock" width="42.743752" height="42.000000" transform="translate(21.731445 22.000000)" fill="#FFFFFF" fill-opacity="0"/>
		<g clip-path="url(#clip88_0)">
			<path id="Vector" d="M57.97 43C57.97 51.06 51.31 57.6 43.1 57.6C34.89 57.6 28.23 51.06 28.23 43C28.23 34.93 34.89 28.39 43.1 28.39C51.31 28.39 57.97 34.93 57.97 43Z" fill="#27ACE2" fill-opacity="1.000000" fill-rule="nonzero"/>
		</g>
	</g>
	<path id="Vector" d="M43.37 22C31.58 22 22 31.41 22 43C22 54.58 31.58 64 43.37 64C55.15 64 64.74 54.58 64.74 43C64.74 31.41 55.15 22 43.37 22ZM43.37 62.17C32.61 62.17 23.85 53.57 23.85 43C23.85 32.42 32.61 23.82 43.37 23.82C54.13 23.82 62.88 32.42 62.88 43C62.88 53.57 54.13 62.17 43.37 62.17Z" fill="#0060AA" fill-opacity="1.000000" fill-rule="nonzero"/>
	<path id="Vector" d="M22 43C22 54.58 31.58 64 43.37 64C55.15 64 64.74 54.58 64.74 43C64.74 31.41 55.15 22 43.37 22C31.58 22 22 31.41 22 43ZM23.85 43C23.85 32.42 32.61 23.82 43.37 23.82C54.13 23.82 62.88 32.42 62.88 43C62.88 53.57 54.13 62.17 43.37 62.17C32.61 62.17 23.85 53.57 23.85 43Z" stroke="#0060AA" stroke-opacity="1.000000" stroke-width="1.000000"/>
	<path id="Vector" d="M43.1 56.69C42.59 56.69 42.17 57.1 42.17 57.6C42.17 58.11 42.59 58.52 43.1 58.52C51.81 58.52 58.89 51.55 58.89 42.99C58.89 42.49 58.48 42.08 57.97 42.08C57.45 42.08 57.04 42.49 57.04 42.99C57.04 50.55 50.78 56.69 43.1 56.69Z" fill="#0060AA" fill-opacity="1.000000" fill-rule="nonzero"/>
	<path id="Vector" d="M43.1 29.3C43.61 29.3 44.03 28.89 44.03 28.39C44.03 27.88 43.61 27.47 43.1 27.47C34.39 27.47 27.3 34.44 27.3 43C27.3 43.5 27.72 43.91 28.23 43.91C28.74 43.91 29.16 43.5 29.16 43C29.16 35.44 35.41 29.3 43.1 29.3Z" fill="#0060AA" fill-opacity="1.000000" fill-rule="nonzero"/>
	<path id="Vector" d="M33.24 51.39L31.93 52.68C31.57 53.03 31.57 53.61 31.93 53.97C32.11 54.14 32.35 54.23 32.59 54.23C32.83 54.23 33.07 54.14 33.25 53.97L34.56 52.68C34.92 52.32 34.92 51.75 34.56 51.39C34.19 51.03 33.61 51.03 33.24 51.39Z" fill="#0060AA" fill-opacity="1.000000" fill-rule="nonzero"/>
	<path id="Vector" d="M31.93 52.68C31.57 53.03 31.57 53.61 31.93 53.97C32.11 54.14 32.35 54.23 32.59 54.23C32.83 54.23 33.07 54.14 33.25 53.97L34.56 52.68C34.92 52.32 34.92 51.75 34.56 51.39C34.19 51.03 33.61 51.03 33.24 51.39L31.93 52.68Z" stroke="#0060AA" stroke-opacity="1.000000" stroke-width="1.000000"/>
	<path id="Vector" d="M52.3 34.87C52.54 34.87 52.77 34.78 52.95 34.6L54.26 33.31C54.63 32.96 54.63 32.38 54.26 32.02C53.9 31.67 53.31 31.67 52.95 32.02L51.64 33.31C51.28 33.67 51.28 34.24 51.64 34.6C51.82 34.78 52.06 34.87 52.3 34.87Z" fill="#0060AA" fill-opacity="1.000000" fill-rule="nonzero"/>
	<path id="Vector" d="M52.95 34.6L54.26 33.31C54.63 32.96 54.63 32.38 54.26 32.02C53.9 31.67 53.31 31.67 52.95 32.02L51.64 33.31C51.28 33.67 51.28 34.24 51.64 34.6C51.82 34.78 52.06 34.87 52.3 34.87C52.54 34.87 52.77 34.78 52.95 34.6Z" stroke="#0060AA" stroke-opacity="1.000000" stroke-width="1.000000"/>
	<path id="Vector" d="M41.92 35C41.41 35 41 35.4 41 35.91L41 45.04C41 45.54 41.41 45.95 41.92 45.95L51.22 45.95C51.73 45.95 52.15 45.54 52.15 45.04C52.15 44.53 51.73 44.13 51.22 44.13L42.85 44.13L42.85 35.91C42.85 35.4 42.44 35 41.92 35Z" fill="#0060AA" fill-opacity="1.000000" fill-rule="nonzero"/>
</svg>
